<svg width="203" height="232" viewBox="0 0 203 232" fill="none" xmlns="http://www.w3.org/2000/svg">
<g clip-path="url(#clip0_601_156)">
<path d="M98.4451 2.83071L34.9212 107.354C34.423 108.174 33.2656 108.265 32.6476 107.532C27.0552 100.891 6.22073 72.6423 32.0013 46.8946C55.5262 23.3999 85.4904 6.64863 96.5955 0.859049C97.8554 0.202191 99.1825 1.61741 98.4451 2.83071Z" fill="#007C23"/>
<path d="M94.9323 230.412C96.2001 231.3 97.7622 229.786 96.9125 228.494C82.7238 206.913 35.5577 135.108 29.0423 124.329C22.6159 113.697 9.97618 96.0284 8.92176 80.9116C8.81652 79.4025 6.72974 79.0961 6.2048 80.5153C5.3582 82.8041 4.45687 85.5359 3.61684 88.6566C-6.98785 128.05 8.41341 169.853 41.8617 193.265L94.9323 230.413V230.412Z" fill="#007C23"/>
<path d="M103.657 228.553L167.181 124.03C167.679 123.21 168.837 123.119 169.455 123.852C175.047 130.492 195.882 158.742 170.101 184.49C146.576 207.984 116.612 224.736 105.507 230.525C104.247 231.182 102.92 229.767 103.657 228.553Z" fill="#007C23"/>
<path d="M107.24 0.958106C105.972 0.0707389 104.41 1.58404 105.26 2.87636C119.449 24.4574 166.615 96.2627 173.13 107.041C179.557 117.673 192.196 135.342 193.251 150.459C193.356 151.968 195.443 152.274 195.968 150.855C196.814 148.566 197.716 145.835 198.556 142.714C209.16 103.32 193.759 61.5178 160.311 38.1053L107.24 0.958106Z" fill="#007C23"/>
</g>
<defs>
<clipPath id="clip0_601_156">
<rect width="202" height="231" fill="white" transform="translate(0.0859375 0.0273438)"/>
</clipPath>
</defs>
</svg>
