<svg width="400" height="400" viewBox="0 0 400 400" fill="none" xmlns="http://www.w3.org/2000/svg">
<rect width="400" height="400" fill="#007C23"/>
<g clip-path="url(#clip0_4_28)">
<path d="M197.359 87.3034L133.835 191.827C133.337 192.647 132.18 192.738 131.562 192.005C125.969 185.364 105.135 157.115 130.915 131.367C154.44 107.873 184.405 91.1213 195.51 85.3317C196.77 84.6748 198.097 86.0901 197.359 87.3034Z" fill="white"/>
<path d="M193.846 314.885C195.114 315.773 196.676 314.259 195.827 312.967C181.638 291.386 134.472 219.581 127.956 208.802C121.53 198.17 108.89 180.501 107.836 165.384C107.731 163.875 105.644 163.569 105.119 164.988C104.272 167.277 103.371 170.009 102.531 173.129C91.9262 212.523 107.327 254.326 140.776 277.738L193.846 314.886V314.885Z" fill="white"/>
<path d="M202.571 313.026L266.095 208.503C266.593 207.683 267.751 207.592 268.369 208.325C273.961 214.965 294.796 243.215 269.015 268.963C245.49 292.457 215.526 309.209 204.421 314.998C203.161 315.655 201.834 314.24 202.571 313.026Z" fill="white"/>
<path d="M206.154 85.4308C204.886 84.5434 203.324 86.0567 204.174 87.349C218.363 108.93 265.529 180.735 272.044 191.514C278.471 202.146 291.11 219.815 292.165 234.932C292.27 236.441 294.357 236.747 294.882 235.328C295.728 233.039 296.63 230.308 297.47 227.187C308.074 187.793 292.673 145.991 259.225 122.578L206.154 85.4308Z" fill="white"/>
</g>
<defs>
<clipPath id="clip0_4_28">
<rect width="202" height="231" fill="white" transform="translate(99 84.5)"/>
</clipPath>
</defs>
</svg>
