<svg width="272" height="85" viewBox="0 0 272 85" fill="none" xmlns="http://www.w3.org/2000/svg">
<path d="M244.908 74.6198C230.712 74.6198 218.859 68.9493 217.284 55.4044C217.236 54.9853 217.536 54.6057 217.951 54.5522L232.517 52.6746C232.972 52.6158 233.378 52.9678 233.418 53.4295C234.002 60.1765 238.741 63.2248 245.272 63.2248C252.197 63.2248 255.72 60.6518 255.72 56.1183C255.72 52.075 251.104 50.6046 241.506 48.2766C229.843 45.4585 219.152 41.7827 219.152 29.1625C219.152 15.6846 230.936 10.416 244.057 10.416C257.181 10.416 268.431 14.7881 270.326 28.1738C270.385 28.5871 270.102 28.9724 269.694 29.0426L255.611 31.4646C255.152 31.5437 254.728 31.1983 254.68 30.7306C254.028 24.4883 250.108 21.6884 244.3 21.6884C239.319 21.6884 235.189 23.5263 235.189 27.8148C235.189 31.9806 239.562 33.451 247.702 35.2889C258.515 37.7394 272 40.68 272 55.2606C272 69.9638 259.122 74.6198 244.908 74.6198Z" fill="#007C23"/>
<path d="M207.77 16.2499C212.63 21.151 213.237 27.7674 213.237 35.7316V73.2983C213.237 73.7327 212.888 74.0847 212.457 74.0847H196.887C196.456 74.0847 196.107 73.7327 196.107 73.2983V37.2019C196.107 31.5657 195.621 28.6251 192.948 26.0521C190.761 23.9691 188.696 23.6015 185.051 23.6015C179.827 23.6015 173.753 27.1548 173.753 39.775V73.2983C173.753 73.7327 173.404 74.0847 172.973 74.0847H157.524C157.093 74.0847 156.744 73.7327 156.744 73.2983V12.748C156.744 12.3136 157.093 11.9615 157.524 11.9615H172.852C173.282 11.9615 173.631 12.3136 173.631 12.748V19.4156C173.631 19.7923 174.186 19.9114 174.36 19.578C177.779 13.029 184.276 10.4912 191.612 10.4912C199.387 10.4912 203.882 12.3291 207.77 16.2499Z" fill="#007C23"/>
<path d="M143.284 18.2959C149.183 24.3452 152.154 33.5393 152.404 45.1827C152.413 45.6106 152.077 45.9655 151.653 45.979L108.762 47.3464C108.328 47.3602 107.988 47.7311 108.018 48.1681C108.683 57.9185 113.678 62.7583 122.547 62.4755C130.031 62.2369 133.808 58.8197 134.983 52.8454C135.061 52.4498 135.411 52.1628 135.81 52.1855L150.749 53.0363C151.23 53.0637 151.571 53.5234 151.453 53.9946C148.133 67.2308 138.245 74.1112 122.927 74.5996C113.455 74.9015 105.831 72.0799 100.573 67.2214C94.5642 61.6514 91.3965 53.6616 91.0741 43.3745C90.767 33.5773 93.1775 25.1645 98.9471 19.219C104.125 13.7826 111.322 10.7337 120.794 10.4317C130.387 10.1259 138.012 12.9475 143.284 18.2959ZM121.166 22.3108C116.188 22.4696 112.712 24.0514 110.501 27.1866C109.015 29.2442 108.15 31.7906 107.811 34.7364C107.757 35.202 108.133 35.598 108.597 35.5832L133.947 34.7751C134.407 34.7604 134.755 34.3485 134.684 33.8899C134.151 30.4855 133.078 27.637 130.992 25.5526C128.608 23.1769 125.538 22.1715 121.166 22.3108Z" fill="#007C23"/>
<path d="M36.032 0.790243L12.718 39.4181C12.5352 39.721 12.1104 39.7548 11.8836 39.4836C9.83112 37.0297 2.18459 26.5899 11.6464 17.0745C20.2803 8.3918 31.2775 2.2012 35.3532 0.061593C35.8156 -0.181156 36.3027 0.341856 36.032 0.790243Z" fill="#007C23"/>
<path d="M34.7302 84.9015C35.1954 85.2295 35.7688 84.6702 35.4569 84.1926C30.2495 76.2171 12.939 49.6807 10.5478 45.6973C8.18919 41.7681 3.55027 35.2384 3.16329 29.6518C3.12466 29.0941 2.35879 28.9809 2.16613 29.5054C1.85542 30.3512 1.52462 31.3608 1.21632 32.5141C-2.67573 47.0725 2.97671 62.5211 15.2526 71.1734L34.7302 84.9016V84.9015Z" fill="#007C23"/>
<path d="M37.9351 84.2066L61.2492 45.5787C61.432 45.2758 61.8568 45.2421 62.0836 45.5132C64.1361 47.9671 71.7826 58.407 62.3208 67.9223C53.6869 76.6051 42.6897 82.7957 38.614 84.9353C38.1516 85.178 37.6645 84.655 37.9351 84.2066Z" fill="#007C23"/>
<path d="M39.2355 0.0982007C38.7702 -0.229735 38.1969 0.329522 38.5088 0.807112C43.7162 8.78261 61.0267 35.319 63.4179 39.3025C65.7765 43.2316 70.4154 49.7613 70.8024 55.3479C70.841 55.9056 71.6069 56.0188 71.7996 55.4944C72.1103 54.6485 72.4411 53.639 72.7494 52.4857C76.6414 37.9272 70.989 22.4787 58.7131 13.8264L39.2355 0.0982007Z" fill="#007C23"/>
</svg>
