<svg width="273" height="85" viewBox="0 0 273 85" fill="none" xmlns="http://www.w3.org/2000/svg">
<path d="M245.408 74.6198C231.212 74.6198 219.359 68.9493 217.784 55.4044C217.736 54.9853 218.036 54.6057 218.451 54.5522L233.017 52.6746C233.472 52.6158 233.878 52.9678 233.918 53.4295C234.502 60.1765 239.241 63.2248 245.772 63.2248C252.697 63.2248 256.22 60.6518 256.22 56.1183C256.22 52.075 251.604 50.6046 242.006 48.2766C230.343 45.4585 219.652 41.7827 219.652 29.1625C219.652 15.6846 231.436 10.416 244.557 10.416C257.681 10.416 268.931 14.7881 270.826 28.1738C270.885 28.5871 270.602 28.9724 270.194 29.0426L256.111 31.4646C255.652 31.5437 255.228 31.1983 255.18 30.7306C254.528 24.4883 250.608 21.6884 244.8 21.6884C239.819 21.6884 235.689 23.5263 235.689 27.8148C235.689 31.9806 240.062 33.451 248.202 35.2889C259.015 37.7394 272.5 40.68 272.5 55.2606C272.5 69.9638 259.622 74.6198 245.408 74.6198Z" fill="#C5DDCC"/>
<path d="M208.27 16.2499C213.13 21.151 213.737 27.7674 213.737 35.7316V73.2983C213.737 73.7327 213.388 74.0847 212.957 74.0847H197.387C196.956 74.0847 196.607 73.7327 196.607 73.2983V37.2019C196.607 31.5657 196.121 28.6251 193.448 26.0521C191.261 23.9691 189.196 23.6015 185.551 23.6015C180.327 23.6015 174.253 27.1548 174.253 39.775V73.2983C174.253 73.7327 173.904 74.0847 173.473 74.0847H158.024C157.593 74.0847 157.244 73.7327 157.244 73.2983V12.748C157.244 12.3136 157.593 11.9615 158.024 11.9615H173.352C173.782 11.9615 174.131 12.3136 174.131 12.748V19.4156C174.131 19.7923 174.686 19.9114 174.86 19.578C178.279 13.029 184.776 10.4912 192.112 10.4912C199.887 10.4912 204.382 12.3291 208.27 16.2499Z" fill="#C5DDCC"/>
<path d="M143.784 18.2959C149.683 24.3452 152.654 33.5393 152.904 45.1827C152.913 45.6106 152.577 45.9655 152.153 45.979L109.262 47.3464C108.828 47.3602 108.488 47.7311 108.518 48.1681C109.183 57.9185 114.178 62.7583 123.047 62.4755C130.531 62.2369 134.308 58.8197 135.483 52.8454C135.561 52.4498 135.911 52.1628 136.31 52.1855L151.249 53.0363C151.73 53.0637 152.071 53.5234 151.953 53.9946C148.633 67.2308 138.745 74.1112 123.427 74.5996C113.955 74.9015 106.331 72.0799 101.073 67.2214C95.0642 61.6514 91.8965 53.6616 91.5741 43.3745C91.267 33.5773 93.6775 25.1645 99.4471 19.219C104.625 13.7826 111.822 10.7337 121.294 10.4317C130.887 10.1259 138.512 12.9475 143.784 18.2959ZM121.666 22.3108C116.688 22.4696 113.212 24.0514 111.001 27.1866C109.515 29.2442 108.65 31.7906 108.311 34.7364C108.257 35.202 108.633 35.598 109.097 35.5832L134.447 34.7751C134.907 34.7604 135.255 34.3485 135.184 33.8899C134.651 30.4855 133.578 27.637 131.492 25.5526C129.108 23.1769 126.038 22.1715 121.666 22.3108Z" fill="#C5DDCC"/>
<path d="M36.532 0.790243L13.218 39.4181C13.0352 39.721 12.6104 39.7548 12.3836 39.4836C10.3311 37.0297 2.68459 26.5899 12.1464 17.0745C20.7803 8.3918 31.7775 2.2012 35.8532 0.061593C36.3156 -0.181156 36.8027 0.341856 36.532 0.790243Z" fill="#C5DDCC"/>
<path d="M35.2302 84.9015C35.6954 85.2295 36.2688 84.6702 35.9569 84.1926C30.7495 76.2171 13.439 49.6807 11.0478 45.6973C8.68919 41.7681 4.05027 35.2384 3.66329 29.6518C3.62466 29.0941 2.85879 28.9809 2.66613 29.5054C2.35542 30.3512 2.02462 31.3608 1.71632 32.5141C-2.17573 47.0725 3.47671 62.5211 15.7526 71.1734L35.2302 84.9016V84.9015Z" fill="#C5DDCC"/>
<path d="M38.4351 84.2066L61.7492 45.5787C61.932 45.2758 62.3568 45.2421 62.5836 45.5132C64.6361 47.9671 72.2826 58.407 62.8208 67.9223C54.1869 76.6051 43.1897 82.7957 39.114 84.9353C38.6516 85.178 38.1645 84.655 38.4351 84.2066Z" fill="#C5DDCC"/>
<path d="M39.7355 0.0982007C39.2702 -0.229735 38.6969 0.329522 39.0088 0.807112C44.2162 8.78261 61.5267 35.319 63.9179 39.3025C66.2765 43.2316 70.9154 49.7613 71.3024 55.3479C71.341 55.9056 72.1069 56.0188 72.2996 55.4944C72.6103 54.6485 72.9411 53.639 73.2494 52.4857C77.1414 37.9272 71.489 22.4787 59.2131 13.8264L39.7355 0.0982007Z" fill="#C5DDCC"/>
</svg>
